<svg xmlns="http://www.w3.org/2000/svg" version="1.1" xmlns:xlink="http://www.w3.org/1999/xlink" xmlns:svgjs="http://svgjs.dev/svgjs" width="1000" height="598" viewBox="0 0 1000 598"><g transform="matrix(1,0,0,1,-0.6060606060606233,-0.05787205499319725)"><svg viewBox="0 0 396 237" data-background-color="#444444" preserveAspectRatio="xMidYMid meet" height="598" width="1000" xmlns="http://www.w3.org/2000/svg" xmlns:xlink="http://www.w3.org/1999/xlink"><g id="tight-bounds" transform="matrix(1,0,0,1,0.2400000000000091,0.022935914771551325)"><svg viewBox="0 0 395.52 236.9541281704569" height="236.9541281704569" width="395.52"><g><svg viewBox="0 0 397.4975999999999 238.13889881130916" height="236.9541281704569" width="395.52"><g><rect width="397.4975999999999" height="7.293879945217907" x="0" y="130.87067007880782" fill="#00d1cd" opacity="1" stroke-width="0" stroke="transparent" fill-opacity="1" class="rect-r$-0" data-fill-palette-color="secondary" rx="1%" id="r$-0" data-palette-color="#00d1cd"></rect></g><g transform="matrix(1,0,0,1,0.9887999999999693,157.25847658218777)"><svg viewBox="0 0 395.52 80.88042222912138" height="80.88042222912138" width="395.52"><g id="textblocktransform"><svg viewBox="0 0 395.52 80.88042222912138" height="80.88042222912138" width="395.52" id="textblock"><g><svg viewBox="0 0 395.52 80.88042222912138" height="80.88042222912138" width="395.52"><g transform="matrix(1,0,0,1,0,0)"><svg width="395.52" viewBox="2.22 -38.09 235.89000000000001 48.25" height="80.88042222912138" data-palette-color="#ffffff"><path d="M27.29 0L2.22 0 2.22-2.25 22.97-33.11 5.62-33.11 5.42-27.83 2.93-27.83 2.93-35.55 26.51-35.55 26.51-33.42 5.71-2.44 24.61-2.44 24.83-7.91 27.29-7.91 27.29 0ZM42.33 0L31.44 0 31.44-2.12 35.42-2.44 35.42-23.95 31.44-24.27 31.44-26.42 38.35-26.42 38.35-2.44 42.33-2.12 42.33 0ZM38.35-33.86L35.08-33.86 35.08-38.09 38.35-38.09 38.35-33.86ZM62.89 0L46.72 0 46.72-2.12 50.7-2.44 50.7-33.08 46.72-33.4 46.72-35.55 50.7-35.55 60.96-35.55Q66.5-35.55 69.6-33.22 72.7-30.88 72.7-26.2L72.7-26.2Q72.7-23.41 71.13-21.37 69.55-19.34 66.79-18.63L66.79-18.63Q68.99-18.26 70.66-17.02 72.33-15.77 73.27-13.93 74.21-12.08 74.21-9.91L74.21-9.91Q74.21-5.13 71.13-2.56 68.04 0 62.89 0L62.89 0ZM53.63-17.14L53.63-2.44 62.89-2.44Q66.82-2.44 69.05-4.39 71.28-6.35 71.28-9.86L71.28-9.86Q71.28-11.99 70.38-13.64 69.48-15.28 67.7-16.21 65.91-17.14 63.35-17.14L63.35-17.14 53.63-17.14ZM53.63-33.08L53.63-19.6 61.81-19.6Q65.62-19.6 67.68-21.31 69.75-23.02 69.75-26.29L69.75-26.29Q69.75-29.69 67.51-31.38 65.28-33.08 60.96-33.08L60.96-33.08 53.63-33.08ZM97.75 0L86.86 0 86.86-2.12 90.84-2.44 90.84-13.23 79.02-33.2 76.12-33.4 76.12-35.55 86.05-35.55 86.05-33.4 82.32-33.2 91.72-16.82 92.28-15.72 92.3-15.77 92.89-16.82 102.46-33.2 98.67-33.4 98.67-35.55 108.49-35.55 108.49-33.4 105.49-33.2 93.77-13.4 93.77-2.44 97.75-2.12 97.75 0ZM132.36 0L123.6 0 123.6-2.12 126.21-2.29 138.83-35.55 141.61-35.55 154.14-2.29 156.75-2.12 156.75 0 147.99 0 147.99-2.12 151.11-2.34 148.16-10.38 132.21-10.38 129.24-2.34 132.36-2.12 132.36 0ZM139.64-30.4L133.17-12.94 147.2-12.94 140.78-30.4 140.3-31.84 140.15-31.84 139.64-30.4ZM170.93 10.16L160.04 10.16 160.04 8.01 163.93 7.69 163.93-23.95 159.95-24.27 159.95-26.42 166.37-26.42 166.73-22.39Q168.05-24.54 170.14-25.72 172.23-26.9 175.06-26.9L175.06-26.9Q178.23-26.9 180.51-25.18 182.8-23.46 184.01-20.34 185.21-17.21 185.21-12.99L185.21-12.99 185.21-12.48Q185.21-8.52 184.01-5.62 182.8-2.71 180.54-1.1 178.28 0.51 175.13 0.51L175.13 0.51Q172.32 0.51 170.24-0.54 168.15-1.59 166.86-3.47L166.86-3.47 166.86 7.69 170.93 8.01 170.93 10.16ZM174.45-1.93L174.45-1.93Q178.28-1.93 180.27-4.81 182.26-7.69 182.26-12.48L182.26-12.48 182.26-12.99Q182.26-16.36 181.36-18.92 180.45-21.48 178.71-22.94 176.96-24.39 174.4-24.39L174.4-24.39Q171.4-24.39 169.58-22.92 167.76-21.46 166.86-19.21L166.86-19.21 166.86-6.62Q167.78-4.44 169.69-3.19 171.59-1.93 174.45-1.93ZM199.69 10.16L188.8 10.16 188.8 8.01 192.68 7.69 192.68-23.95 188.7-24.27 188.7-26.42 195.12-26.42 195.49-22.39Q196.81-24.54 198.9-25.72 200.98-26.9 203.82-26.9L203.82-26.9Q206.99-26.9 209.27-25.18 211.55-23.46 212.76-20.34 213.97-17.21 213.97-12.99L213.97-12.99 213.97-12.48Q213.97-8.52 212.76-5.62 211.55-2.71 209.3-1.1 207.04 0.51 203.89 0.51L203.89 0.51Q201.08 0.51 198.99-0.54 196.91-1.59 195.61-3.47L195.61-3.47 195.61 7.69 199.69 8.01 199.69 10.16ZM203.21-1.93L203.21-1.93Q207.04-1.93 209.03-4.81 211.02-7.69 211.02-12.48L211.02-12.48 211.02-12.99Q211.02-16.36 210.11-18.92 209.21-21.48 207.47-22.94 205.72-24.39 203.16-24.39L203.16-24.39Q200.15-24.39 198.33-22.92 196.52-21.46 195.61-19.21L195.61-19.21 195.61-6.62Q196.54-4.44 198.44-3.19 200.35-1.93 203.21-1.93ZM228.4 0.51L228.4 0.51Q225.61 0.51 223.23-0.23 220.85-0.98 218.75-2.39L218.75-2.39 218.73-7.81 221.12-7.81 221.54-3.93Q222.95-2.83 224.69-2.34 226.42-1.86 228.4-1.86L228.4-1.86Q231.72-1.86 233.45-3.3 235.19-4.74 235.19-6.71L235.19-6.71Q235.19-8.57 233.63-10 232.08-11.43 228.13-12.3L228.13-12.3Q223.39-13.33 221.28-15.04 219.17-16.75 219.17-19.8L219.17-19.8Q219.17-21.8 220.29-23.41 221.42-25.02 223.48-25.96 225.54-26.9 228.32-26.9L228.32-26.9Q231.23-26.9 233.38-26.06 235.53-25.22 237.06-23.8L237.06-23.8 237.19-18.38 234.79-18.38 234.45-22.29Q233.35-23.34 231.89-23.91 230.42-24.49 228.32-24.49L228.32-24.49Q225.35-24.49 223.73-23.11 222.12-21.73 222.12-19.9L222.12-19.9Q222.12-18.7 222.62-17.81 223.12-16.92 224.55-16.21 225.98-15.5 228.72-14.87L228.72-14.87Q233.67-13.75 235.89-11.83 238.11-9.91 238.11-6.86L238.11-6.86Q238.11-3.64 235.61-1.56 233.11 0.51 228.4 0.51Z" opacity="1" transform="matrix(1,0,0,1,0,0)" fill="#ffffff" class="wordmark-text-0" data-fill-palette-color="primary" id="text-0"></path></svg></g></svg></g></svg></g></svg></g><g transform="matrix(1,0,0,1,121.89192426345649,0)"><svg viewBox="0 0 153.71375147308694 111.77674352064575" height="111.77674352064575" width="153.71375147308694"><g><svg version="1.1" xmlns="http://www.w3.org/2000/svg" xmlns:xlink="http://www.w3.org/1999/xlink" x="8" y="0" viewBox="0 0 100 81.166" enable-background="new 0 0 100 81.166" xml:space="preserve" width="137.71375147308694" height="111.77674352064575" class="icon-icon-0" data-fill-palette-color="accent" id="icon-0"><path d="M87.043 0H50 12.957L0 23.557l50 57.609 50-57.609L87.043 0zM83.635 6.345l7.59 13.801h-13.64L83.635 6.345zM77.168 6.043l-5.537 12.636L57.792 6.043H77.168zM64.273 20.146H50 35.727L50 7.113 64.273 20.146zM42.208 6.043L28.37 18.679 22.832 6.043H42.208zM16.365 6.345l6.05 13.801H8.775L16.365 6.345zM10.288 26.189h14.776l15.078 34.399L10.288 26.189zM31.663 26.189H50h18.338L50 68.022 31.663 26.189zM59.857 60.589l15.078-34.399h14.777L59.857 60.589z" fill="#00d1cd" data-fill-palette-color="accent"></path></svg></g></svg></g><g><rect width="45.35880426345652" height="7.293879945217907" y="103.48286357542784" x="275.60567573654345" fill="#00d1cd" data-fill-palette-color="secondary"></rect><rect width="45.35880426345652" height="7.293879945217907" y="103.48286357542784" x="76.53311999999997" fill="#00d1cd" data-fill-palette-color="secondary"></rect></g></svg></g><defs></defs></svg><rect width="395.52" height="236.9541281704569" fill="none" stroke="none" visibility="hidden"></rect></g></svg></g></svg>